<svg data-v-423bf9ae="" xmlns="http://www.w3.org/2000/svg" viewBox="0 0 654 90" class="iconLeft"><!----><!----><!----><g data-v-423bf9ae="" id="18d11ac1-e70c-4707-a6a5-648a4750f637" fill="#000000" transform="matrix(6.0301508693628145,0,0,6.0301508693628145,101.86229498024647,-1.8844238156059347)"><path d="M1.35 12.61L1.35 2.95L4.21 2.95L4.21 2.95Q5.17 2.95 5.91 3.27L5.91 3.27L5.91 3.27Q6.64 3.60 7.04 4.22L7.04 4.22L7.04 4.22Q7.45 4.85 7.45 5.70L7.45 5.70L7.45 5.70Q7.45 6.56 7.04 7.17L7.04 7.17L7.04 7.17Q6.64 7.78 5.91 8.09L5.91 8.09L5.91 8.09Q5.17 8.41 4.21 8.41L4.21 8.41L2.73 8.41L2.73 12.61L1.35 12.61ZM2.73 7.14L4.21 7.14L4.21 7.14Q6.08 7.14 6.08 5.70L6.08 5.70L6.08 5.70Q6.08 4.99 5.60 4.60L5.60 4.60L5.60 4.60Q5.13 4.22 4.21 4.22L4.21 4.22L2.73 4.22L2.73 7.14ZM10.71 12.74L10.71 12.74Q10.03 12.74 9.50 12.49L9.50 12.49L9.50 12.49Q8.97 12.24 8.67 11.75L8.67 11.75L8.67 11.75Q8.37 11.27 8.37 10.61L8.37 10.61L8.37 10.61Q8.37 9.58 9.12 9.10L9.12 9.10L9.12 9.10Q9.86 8.62 11.24 8.62L11.24 8.62L12.90 8.62L12.90 8.62Q12.90 7.77 12.52 7.28L12.52 7.28L12.52 7.28Q12.15 6.79 11.38 6.79L11.38 6.79L11.38 6.79Q10.77 6.79 10.34 7.07L10.34 7.07L10.34 7.07Q9.90 7.36 9.62 7.79L9.62 7.79L8.63 7.05L8.63 7.05Q9.12 6.36 9.79 6.00L9.79 6.00L9.79 6.00Q10.45 5.63 11.34 5.63L11.34 5.63L11.34 5.63Q12.22 5.63 12.85 5.98L12.85 5.98L12.85 5.98Q13.49 6.34 13.82 6.97L13.82 6.97L13.82 6.97Q14.14 7.60 14.14 8.44L14.14 8.44L14.14 12.61L13.04 12.61L12.97 11.45L12.97 11.45Q12.59 12.13 12.01 12.43L12.01 12.43L12.01 12.43Q11.42 12.74 10.71 12.74L10.71 12.74ZM10.88 11.62L10.88 11.62Q11.45 11.62 11.91 11.33L11.91 11.33L11.91 11.33Q12.37 11.03 12.63 10.56L12.63 10.56L12.63 10.56Q12.89 10.10 12.90 9.60L12.90 9.60L11.33 9.60L11.33 9.60Q10.53 9.60 10.13 9.86L10.13 9.86L10.13 9.86Q9.73 10.13 9.73 10.65L9.73 10.65L9.73 10.65Q9.73 11.12 10.04 11.37L10.04 11.37L10.04 11.37Q10.35 11.62 10.88 11.62L10.88 11.62ZM18.33 12.75L18.33 12.75Q17.11 12.75 16.51 11.89L16.51 11.89L16.51 11.89Q15.91 11.04 15.91 9.57L15.91 9.57L15.91 5.78L17.25 5.78L17.25 9.63L17.25 9.63Q17.25 10.53 17.54 11.06L17.54 11.06L17.54 11.06Q17.83 11.59 18.59 11.59L18.59 11.59L18.59 11.59Q19.09 11.59 19.50 11.33L19.50 11.33L19.50 11.33Q19.92 11.07 20.17 10.54L20.17 10.54L20.17 10.54Q20.42 10.01 20.42 9.23L20.42 9.23L20.42 5.78L21.75 5.78L21.75 12.61L20.42 12.61L20.42 11.61L20.42 11.61Q20.12 12.11 19.56 12.43L19.56 12.43L19.56 12.43Q19.01 12.75 18.33 12.75L18.33 12.75ZM25.87 12.74L25.87 12.74Q25.22 12.74 24.66 12.50L24.66 12.50L24.66 12.50Q24.10 12.26 23.72 11.85L23.72 11.85L23.72 11.85Q23.34 11.44 23.17 10.94L23.17 10.94L24.25 10.44L24.25 10.44Q24.44 10.97 24.82 11.31L24.82 11.31L24.82 11.31Q25.20 11.65 25.84 11.65L25.84 11.65L25.84 11.65Q26.41 11.65 26.74 11.38L26.74 11.38L26.74 11.38Q27.07 11.10 27.07 10.67L27.07 10.67L27.07 10.67Q27.07 10.36 26.88 10.15L26.88 10.15L26.88 10.15Q26.69 9.95 26.40 9.83L26.40 9.83L26.40 9.83Q26.11 9.71 25.59 9.56L25.59 9.56L25.59 9.56Q24.94 9.37 24.53 9.18L24.53 9.18L24.53 9.18Q24.12 8.99 23.83 8.62L23.83 8.62L23.83 8.62Q23.54 8.24 23.54 7.64L23.54 7.64L23.54 7.64Q23.54 7 23.85 6.55L23.85 6.55L23.85 6.55Q24.17 6.09 24.71 5.86L24.71 5.86L24.71 5.86Q25.24 5.63 25.87 5.63L25.87 5.63L25.87 5.63Q26.69 5.63 27.31 6.01L27.31 6.01L27.31 6.01Q27.92 6.38 28.28 7.05L28.28 7.05L27.28 7.61L27.28 7.61Q26.80 6.69 25.83 6.69L25.83 6.69L25.83 6.69Q25.35 6.69 25.07 6.90L25.07 6.90L25.07 6.90Q24.78 7.12 24.78 7.46L24.78 7.46L24.78 7.46Q24.78 7.72 24.96 7.90L24.96 7.90L24.96 7.90Q25.14 8.08 25.40 8.19L25.40 8.19L25.40 8.19Q25.67 8.29 26.15 8.44L26.15 8.44L26.15 8.44Q26.85 8.65 27.29 8.86L27.29 8.86L27.29 8.86Q27.73 9.06 28.04 9.48L28.04 9.48L28.04 9.48Q28.36 9.89 28.36 10.56L28.36 10.56L28.36 10.56Q28.36 11.27 28.01 11.76L28.01 11.76L28.01 11.76Q27.66 12.26 27.09 12.50L27.09 12.50L27.09 12.50Q26.52 12.74 25.87 12.74L25.87 12.74ZM32.66 12.72L32.66 12.72Q31.60 12.72 30.87 12.24L30.87 12.24L30.87 12.24Q30.13 11.76 29.77 10.97L29.77 10.97L29.77 10.97Q29.40 10.18 29.40 9.22L29.40 9.22L29.40 9.22Q29.40 8.29 29.75 7.47L29.75 7.47L29.75 7.47Q30.11 6.66 30.82 6.16L30.82 6.16L30.82 6.16Q31.53 5.66 32.55 5.66L32.55 5.66L32.55 5.66Q33.63 5.66 34.30 6.16L34.30 6.16L34.30 6.16Q34.98 6.65 35.27 7.42L35.27 7.42L35.27 7.42Q35.57 8.19 35.57 9.04L35.57 9.04L35.57 9.04Q35.57 9.41 35.53 9.63L35.53 9.63L30.80 9.63L30.80 9.63Q30.85 10.48 31.32 11.01L31.32 11.01L31.32 11.01Q31.79 11.54 32.66 11.54L32.66 11.54L32.66 11.54Q33.22 11.54 33.65 11.37L33.65 11.37L33.65 11.37Q34.08 11.20 34.45 10.81L34.45 10.81L35.36 11.58L35.36 11.58Q34.80 12.17 34.15 12.44L34.15 12.44L34.15 12.44Q33.50 12.72 32.66 12.72L32.66 12.72ZM30.80 8.62L34.28 8.62L34.28 8.62Q34.23 7.79 33.80 7.27L33.80 7.27L33.80 7.27Q33.37 6.76 32.54 6.76L32.54 6.76L32.54 6.76Q31.75 6.76 31.31 7.28L31.31 7.28L31.31 7.28Q30.88 7.80 30.80 8.62L30.80 8.62ZM41.05 12.61L41.05 6.88L39.81 6.88L39.81 5.78L41.06 5.78L41.06 4.74L41.06 4.74Q41.06 4.12 41.33 3.68L41.33 3.68L41.33 3.68Q41.60 3.25 42.06 3.02L42.06 3.02L42.06 3.02Q42.51 2.80 43.06 2.80L43.06 2.80L43.06 2.80Q43.67 2.80 44.24 3.08L44.24 3.08L43.85 4.15L43.85 4.15Q43.48 3.96 43.18 3.96L43.18 3.96L43.18 3.96Q42.83 3.96 42.61 4.18L42.61 4.18L42.61 4.18Q42.40 4.40 42.40 4.85L42.40 4.85L42.40 5.78L44.19 5.78L44.19 6.88L42.40 6.88L42.40 12.61L41.05 12.61ZM48.12 12.74L48.12 12.74Q47.13 12.74 46.37 12.26L46.37 12.26L46.37 12.26Q45.61 11.78 45.19 10.96L45.19 10.96L45.19 10.96Q44.76 10.14 44.76 9.17L44.76 9.17L44.76 9.17Q44.76 8.20 45.18 7.39L45.18 7.39L45.18 7.39Q45.60 6.58 46.37 6.11L46.37 6.11L46.37 6.11Q47.13 5.63 48.12 5.63L48.12 5.63L48.12 5.63Q49.10 5.63 49.86 6.11L49.86 6.11L49.86 6.11Q50.63 6.58 51.06 7.40L51.06 7.40L51.06 7.40Q51.49 8.21 51.49 9.17L51.49 9.17L51.49 9.17Q51.49 10.14 51.06 10.96L51.06 10.96L51.06 10.96Q50.63 11.78 49.86 12.26L49.86 12.26L49.86 12.26Q49.10 12.74 48.12 12.74L48.12 12.74ZM48.13 11.62L48.13 11.62Q48.79 11.62 49.24 11.28L49.24 11.28L49.24 11.28Q49.69 10.94 49.91 10.38L49.91 10.38L49.91 10.38Q50.12 9.83 50.12 9.17L50.12 9.17L50.12 9.17Q50.12 8.52 49.91 7.97L49.91 7.97L49.91 7.97Q49.69 7.42 49.24 7.09L49.24 7.09L49.24 7.09Q48.79 6.76 48.13 6.76L48.13 6.76L48.13 6.76Q47.46 6.76 47.01 7.09L47.01 7.09L47.01 7.09Q46.56 7.42 46.34 7.97L46.34 7.97L46.34 7.97Q46.13 8.52 46.13 9.17L46.13 9.17L46.13 9.17Q46.13 9.83 46.34 10.39L46.34 10.39L46.34 10.39Q46.56 10.94 47.01 11.28L47.01 11.28L47.01 11.28Q47.46 11.62 48.13 11.62L48.13 11.62ZM53.05 12.61L53.05 5.78L54.35 5.78L54.35 6.96L54.35 6.96Q54.58 6.34 55.12 5.99L55.12 5.99L55.12 5.99Q55.65 5.63 56.27 5.63L56.27 5.63L56.27 5.63Q56.62 5.63 56.92 5.74L56.92 5.74L56.92 5.74Q57.22 5.85 57.44 6.05L57.44 6.05L56.86 7.16L56.86 7.16Q56.53 6.91 56.07 6.91L56.07 6.91L56.07 6.91Q55.57 6.91 55.18 7.20L55.18 7.20L55.18 7.20Q54.78 7.49 54.56 8.05L54.56 8.05L54.56 8.05Q54.33 8.62 54.33 9.44L54.33 9.44L54.33 12.61L53.05 12.61ZM62.36 12.61L62.36 2.95L65.22 2.95L65.22 2.95Q66.19 2.95 66.92 3.27L66.92 3.27L66.92 3.27Q67.65 3.60 68.06 4.22L68.06 4.22L68.06 4.22Q68.46 4.85 68.46 5.70L68.46 5.70L68.46 5.70Q68.46 6.56 68.06 7.17L68.06 7.17L68.06 7.17Q67.65 7.78 66.92 8.09L66.92 8.09L66.92 8.09Q66.19 8.41 65.22 8.41L65.22 8.41L63.75 8.41L63.75 12.61L62.36 12.61ZM63.75 7.14L65.22 7.14L65.22 7.14Q67.09 7.14 67.09 5.70L67.09 5.70L67.09 5.70Q67.09 4.99 66.61 4.60L66.61 4.60L66.61 4.60Q66.14 4.22 65.22 4.22L65.22 4.22L63.75 4.22L63.75 7.14ZM71.72 12.74L71.72 12.74Q71.04 12.74 70.51 12.49L70.51 12.49L70.51 12.49Q69.98 12.24 69.68 11.75L69.68 11.75L69.68 11.75Q69.38 11.27 69.38 10.61L69.38 10.61L69.38 10.61Q69.38 9.58 70.13 9.10L70.13 9.10L70.13 9.10Q70.88 8.62 72.25 8.62L72.25 8.62L73.91 8.62L73.91 8.62Q73.91 7.77 73.53 7.28L73.53 7.28L73.53 7.28Q73.16 6.79 72.39 6.79L72.39 6.79L72.39 6.79Q71.78 6.79 71.35 7.07L71.35 7.07L71.35 7.07Q70.91 7.36 70.63 7.79L70.63 7.79L69.64 7.05L69.64 7.05Q70.13 6.36 70.80 6.00L70.80 6.00L70.80 6.00Q71.46 5.63 72.35 5.63L72.35 5.63L72.35 5.63Q73.23 5.63 73.87 5.98L73.87 5.98L73.87 5.98Q74.50 6.34 74.83 6.97L74.83 6.97L74.83 6.97Q75.15 7.60 75.15 8.44L75.15 8.44L75.15 12.61L74.05 12.61L73.99 11.45L73.99 11.45Q73.60 12.13 73.02 12.43L73.02 12.43L73.02 12.43Q72.43 12.74 71.72 12.74L71.72 12.74ZM71.89 11.62L71.89 11.62Q72.46 11.62 72.92 11.33L72.92 11.33L72.92 11.33Q73.38 11.03 73.64 10.56L73.64 10.56L73.64 10.56Q73.90 10.10 73.91 9.60L73.91 9.60L72.34 9.60L72.34 9.60Q71.54 9.60 71.14 9.86L71.14 9.86L71.14 9.86Q70.74 10.13 70.74 10.65L70.74 10.65L70.74 10.65Q70.74 11.12 71.05 11.37L71.05 11.37L71.05 11.37Q71.36 11.62 71.89 11.62L71.89 11.62ZM78.26 12.62L76.25 5.78L77.66 5.78L78.96 10.69L80.39 5.78L81.55 5.78L82.99 10.68L84.28 5.78L85.69 5.78L83.69 12.61L82.46 12.61L80.98 7.56L79.49 12.62L78.26 12.62ZM88.94 12.74L88.94 12.74Q88.29 12.74 87.73 12.50L87.73 12.50L87.73 12.50Q87.17 12.26 86.79 11.85L86.79 11.85L86.79 11.85Q86.41 11.44 86.24 10.94L86.24 10.94L87.32 10.44L87.32 10.44Q87.51 10.97 87.89 11.31L87.89 11.31L87.89 11.31Q88.27 11.65 88.91 11.65L88.91 11.65L88.91 11.65Q89.48 11.65 89.81 11.38L89.81 11.38L89.81 11.38Q90.14 11.10 90.14 10.67L90.14 10.67L90.14 10.67Q90.14 10.36 89.95 10.15L89.95 10.15L89.95 10.15Q89.76 9.95 89.47 9.83L89.47 9.83L89.47 9.83Q89.17 9.71 88.66 9.56L88.66 9.56L88.66 9.56Q88.01 9.37 87.60 9.18L87.60 9.18L87.60 9.18Q87.19 8.99 86.90 8.62L86.90 8.62L86.90 8.62Q86.60 8.24 86.60 7.64L86.60 7.64L86.60 7.64Q86.60 7 86.92 6.55L86.92 6.55L86.92 6.55Q87.24 6.09 87.77 5.86L87.77 5.86L87.77 5.86Q88.31 5.63 88.94 5.63L88.94 5.63L88.94 5.63Q89.76 5.63 90.37 6.01L90.37 6.01L90.37 6.01Q90.99 6.38 91.35 7.05L91.35 7.05L90.34 7.61L90.34 7.61Q89.87 6.69 88.89 6.69L88.89 6.69L88.89 6.69Q88.42 6.69 88.14 6.90L88.14 6.90L88.14 6.90Q87.85 7.12 87.85 7.46L87.85 7.46L87.85 7.46Q87.85 7.72 88.03 7.90L88.03 7.90L88.03 7.90Q88.20 8.08 88.47 8.19L88.47 8.19L88.47 8.19Q88.74 8.29 89.22 8.44L89.22 8.44L89.22 8.44Q89.92 8.65 90.36 8.86L90.36 8.86L90.36 8.86Q90.79 9.06 91.11 9.48L91.11 9.48L91.11 9.48Q91.43 9.89 91.43 10.56L91.43 10.56L91.43 10.56Q91.43 11.27 91.08 11.76L91.08 11.76L91.08 11.76Q90.73 12.26 90.16 12.50L90.16 12.50L90.16 12.50Q89.58 12.74 88.94 12.74L88.94 12.74Z"></path></g><defs data-v-423bf9ae=""><linearGradient data-v-423bf9ae="" gradientTransform="rotate(25)" id="dbc01b7c-11b2-4acf-abf9-b8d9c44b9425" x1="0%" y1="0%" x2="100%" y2="0%"><stop data-v-423bf9ae="" offset="0%" style="stop-color: rgb(1, 100, 139); stop-opacity: 1;"></stop><stop data-v-423bf9ae="" offset="100%" style="stop-color: rgb(91, 208, 164); stop-opacity: 1;"></stop></linearGradient></defs><g data-v-423bf9ae="" id="2b78fff1-a811-4d78-8dec-4737fbe995bd" transform="matrix(1.0051148345538898,0,0,1.0051148345538898,-5.028247199949462,-5.026745470350569)" stroke="none" fill="url(#dbc01b7c-11b2-4acf-abf9-b8d9c44b9425)"><path d="M50 94.771C25.312 94.771 5.228 74.688 5.228 50 5.228 25.312 25.312 5.229 50 5.229S94.773 25.314 94.773 50C94.771 74.688 74.688 94.771 50 94.771zm0-85.739C27.411 9.032 9.033 27.41 9.033 50S27.411 90.969 50 90.969c22.59 0 40.968-18.379 40.968-40.969C90.967 27.411 72.59 9.032 50 9.032z"></path><path d="M41.955 37.95a6.931 6.931 0 0 1-6.924-6.924 6.93 6.93 0 0 1 6.924-6.923 6.93 6.93 0 0 1 6.923 6.923 6.932 6.932 0 0 1-6.923 6.924zm0-10.042a3.122 3.122 0 0 0-3.119 3.119 3.122 3.122 0 0 0 3.119 3.119 3.121 3.121 0 0 0 3.118-3.119 3.125 3.125 0 0 0-3.118-3.119zM33.264 46.424a5.19 5.19 0 0 1-5.186-5.186 5.191 5.191 0 0 1 5.186-5.185 5.191 5.191 0 0 1 5.186 5.185 5.193 5.193 0 0 1-5.186 5.186zm0-6.566a1.382 1.382 0 0 0 0 2.761c.761 0 1.38-.62 1.38-1.381 0-.759-.621-1.38-1.38-1.38zM57.598 37.95a6.931 6.931 0 0 1-6.924-6.924 6.929 6.929 0 0 1 6.924-6.923 6.93 6.93 0 0 1 6.922 6.923c0 3.819-3.106 6.924-6.922 6.924zm0-10.042a3.122 3.122 0 0 0-3.119 3.119 3.122 3.122 0 0 0 3.119 3.119 3.121 3.121 0 0 0 3.117-3.119 3.123 3.123 0 0 0-3.117-3.119zM66.287 46.424a5.191 5.191 0 0 1-5.186-5.186 5.191 5.191 0 0 1 5.186-5.185 5.192 5.192 0 0 1 5.186 5.185 5.191 5.191 0 0 1-5.186 5.186zm0-6.566c-.762 0-1.383.62-1.383 1.38a1.383 1.383 0 0 0 2.764 0c0-.759-.621-1.38-1.381-1.38zM50 73.311c-5.712 0-17.604 0-17.604-11.896 0-4.688 1.847-9.5 5.066-13.201 3.424-3.935 7.877-6.102 12.538-6.102 4.663 0 9.115 2.167 12.54 6.102 3.219 3.701 5.063 8.513 5.063 13.201.001 11.896-11.89 11.896-17.603 11.896zm0-27.394c-7.897 0-13.798 8.183-13.798 15.498 0 5.974 3.611 8.092 13.798 8.092 10.188 0 13.799-2.118 13.799-8.092 0-7.315-5.903-15.498-13.799-15.498z"></path></g><!----></svg>